dataset
version=1
nRows=25
nColumns=39
inDegrees=no
endheader
time	sternoclavicular_r2	sternoclavicular_r3	unrotscap_r3	unrotscap_r2	acromioclavicular_r2	acromioclavicular_r3	acromioclavicular_r1	unrothum_r1	unrothum_r3	unrothum_r2	elv_angle	shoulder_elv	shoulder1_r2	shoulder_rot	elbow_flexion	pro_sup	deviation	flexion	cmc_abduction	cmc_flexion	mp_flexion	ip_flexion	mcp2_flexion	mcp2_abduction	pm2_flexion	md2_flexion	mcp3_flexion	mcp3_abduction	pm3_flexion	md3_flexion	mcp4_flexion	mcp4_abduction	pm4_flexion	md4_flexion	mcp5_flexion	mcp5_abduction	pm5_flexion	md5_flexion
1.685000	-0.025359	-0.279125	0.121345	0.111570	0.084812	0.131829	-0.065700	-0.077868	0.125902	0.126602	0.129812	0.027437	0.146525	0.146525	2.011322	1.226272	0.000000	0.000000	0.000000	0.000000	0.000000	0.000000	0.000000	0.000000	0.000000	0.000000	0.000000	0.000000	0.000000	0.000000	0.000000	0.000000	0.000000	0.000000	0.000000	0.000000	0.000000	0.000000
1.690000	-0.025522	-0.278539	0.120597	0.110863	0.083869	0.132921	-0.064119	-0.075783	0.126229	0.125007	0.128784	0.027437	0.146525	0.146525	2.019442	1.226485	0.000000	0.000000	0.000000	0.000000	0.000000	0.000000	0.000000	0.000000	0.000000	0.000000	0.000000	0.000000	0.000000	0.000000	0.000000	0.000000	0.000000	0.000000	0.000000	0.000000	0.000000	0.000000
1.695000	-0.025691	-0.277950	0.119843	0.110162	0.082931	0.134020	-0.062524	-0.073648	0.126545	0.123405	0.127754	0.027437	0.146525	0.146525	2.027404	1.226705	0.000000	0.000000	0.000000	0.000000	0.000000	0.000000	0.000000	0.000000	0.000000	0.000000	0.000000	0.000000	0.000000	0.000000	0.000000	0.000000	0.000000	0.000000	0.000000	0.000000	0.000000	0.000000
1.700000	-0.025866	-0.277361	0.119085	0.109469	0.082000	0.135127	-0.060918	-0.071466	0.126849	0.121798	0.126723	0.027437	0.146525	0.146525	2.035208	1.226930	0.000000	0.000000	0.000000	0.000000	0.000000	0.000000	0.000000	0.000000	0.000000	0.000000	0.000000	0.000000	0.000000	0.000000	0.000000	0.000000	0.000000	0.000000	0.000000	0.000000	0.000000	0.000000
1.705000	-0.026047	-0.276774	0.118326	0.108784	0.081075	0.136240	-0.059303	-0.069237	0.127139	0.120185	0.125692	0.027437	0.146525	0.146525	2.042856	1.227160	0.000000	0.000000	0.000000	0.000000	0.000000	0.000000	0.000000	0.000000	0.000000	0.000000	0.000000	0.000000	0.000000	0.000000	0.000000	0.000000	0.000000	0.000000	0.000000	0.000000	0.000000	0.000000
1.710000	-0.026233	-0.276190	0.117567	0.108109	0.080157	0.137360	-0.057681	-0.066963	0.127415	0.118569	0.124661	0.027437	0.146525	0.146525	2.050349	1.227397	0.000000	0.000000	0.000000	0.000000	0.000000	0.000000	0.000000	0.000000	0.000000	0.000000	0.000000	0.000000	0.000000	0.000000	0.000000	0.000000	0.000000	0.000000	0.000000	0.000000	0.000000	0.000000
1.715000	-0.026424	-0.275612	0.116810	0.107443	0.079248	0.138487	-0.056056	-0.064646	0.127677	0.116950	0.123630	0.027437	0.146525	0.146525	2.057689	1.227638	0.000000	0.000000	0.000000	0.000000	0.000000	0.000000	0.000000	0.000000	0.000000	0.000000	0.000000	0.000000	0.000000	0.000000	0.000000	0.000000	0.000000	0.000000	0.000000	0.000000	0.000000	0.000000
1.720000	-0.026621	-0.275040	0.116058	0.106787	0.078347	0.139620	-0.054429	-0.062286	0.127923	0.115329	0.122599	0.027437	0.146525	0.146525	2.064878	1.227886	0.000000	0.000000	0.000000	0.000000	0.000000	0.000000	0.000000	0.000000	0.000000	0.000000	0.000000	0.000000	0.000000	0.000000	0.000000	0.000000	0.000000	0.000000	0.000000	0.000000	0.000000	0.000000
1.725000	-0.026822	-0.274478	0.115312	0.106142	0.077456	0.140760	-0.052802	-0.059887	0.128154	0.113708	0.121570	0.027437	0.146525	0.146525	2.071918	1.228139	0.000000	0.000000	0.000000	0.000000	0.000000	0.000000	0.000000	0.000000	0.000000	0.000000	0.000000	0.000000	0.000000	0.000000	0.000000	0.000000	0.000000	0.000000	0.000000	0.000000	0.000000	0.000000
1.730000	-0.027027	-0.273926	0.114573	0.105508	0.076575	0.141906	-0.051179	-0.057449	0.128369	0.112087	0.120544	0.027437	0.146525	0.146525	2.078814	1.228397	0.000000	0.000000	0.000000	0.000000	0.000000	0.000000	0.000000	0.000000	0.000000	0.000000	0.000000	0.000000	0.000000	0.000000	0.000000	0.000000	0.000000	0.000000	0.000000	0.000000	0.000000	0.000000
1.735000	-0.027236	-0.273387	0.113845	0.104886	0.075704	0.143058	-0.049560	-0.054975	0.128568	0.110468	0.119519	0.027437	0.146525	0.146525	2.085566	1.228661	0.000000	0.000000	0.000000	0.000000	0.000000	0.000000	0.000000	0.000000	0.000000	0.000000	0.000000	0.000000	0.000000	0.000000	0.000000	0.000000	0.000000	0.000000	0.000000	0.000000	0.000000	0.000000
1.740000	-0.027448	-0.272861	0.113127	0.104276	0.074844	0.144215	-0.047948	-0.052467	0.128750	0.108851	0.118498	0.027437	0.146525	0.146525	2.092179	1.228929	0.000000	0.000000	0.000000	0.000000	0.000000	0.000000	0.000000	0.000000	0.000000	0.000000	0.000000	0.000000	0.000000	0.000000	0.000000	0.000000	0.000000	0.000000	0.000000	0.000000	0.000000	0.000000
1.745000	-0.027664	-0.272351	0.112421	0.103679	0.073996	0.145378	-0.046346	-0.049927	0.128915	0.107239	0.117480	0.027437	0.146525	0.146525	2.098655	1.229203	0.000000	0.000000	0.000000	0.000000	0.000000	0.000000	0.000000	0.000000	0.000000	0.000000	0.000000	0.000000	0.000000	0.000000	0.000000	0.000000	0.000000	0.000000	0.000000	0.000000	0.000000	0.000000
1.750000	-0.027882	-0.271857	0.111729	0.103095	0.073159	0.146546	-0.044753	-0.047358	0.129064	0.105631	0.116466	0.027437	0.146525	0.146525	2.104999	1.229483	0.000000	0.000000	0.000000	0.000000	0.000000	0.000000	0.000000	0.000000	0.000000	0.000000	0.000000	0.000000	0.000000	0.000000	0.000000	0.000000	0.000000	0.000000	0.000000	0.000000	0.000000	0.000000
1.755000	-0.028103	-0.271382	0.111052	0.102524	0.072336	0.147719	-0.043174	-0.044762	0.129197	0.104029	0.115457	0.027437	0.146525	0.146525	2.111214	1.229767	0.000000	0.000000	0.000000	0.000000	0.000000	0.000000	0.000000	0.000000	0.000000	0.000000	0.000000	0.000000	0.000000	0.000000	0.000000	0.000000	0.000000	0.000000	0.000000	0.000000	0.000000	0.000000
1.760000	-0.028325	-0.270926	0.110391	0.101967	0.071525	0.148895	-0.041608	-0.042141	0.129313	0.102434	0.114453	0.027437	0.146525	0.146525	2.117302	1.230056	0.000000	0.000000	0.000000	0.000000	0.000000	0.000000	0.000000	0.000000	0.000000	0.000000	0.000000	0.000000	0.000000	0.000000	0.000000	0.000000	0.000000	0.000000	0.000000	0.000000	0.000000	0.000000
1.765000	-0.028548	-0.270489	0.109746	0.101424	0.070727	0.150075	-0.040057	-0.039498	0.129412	0.100847	0.113455	0.027437	0.146525	0.146525	2.123269	1.230349	0.000000	0.000000	0.000000	0.000000	0.000000	0.000000	0.000000	0.000000	0.000000	0.000000	0.000000	0.000000	0.000000	0.000000	0.000000	0.000000	0.000000	0.000000	0.000000	0.000000	0.000000	0.000000
1.770000	-0.028772	-0.270074	0.109119	0.100894	0.069942	0.151259	-0.038524	-0.036836	0.129496	0.099270	0.112463	0.027437	0.146525	0.146525	2.129118	1.230648	0.000000	0.000000	0.000000	0.000000	0.000000	0.000000	0.000000	0.000000	0.000000	0.000000	0.000000	0.000000	0.000000	0.000000	0.000000	0.000000	0.000000	0.000000	0.000000	0.000000	0.000000	0.000000
1.775000	-0.028997	-0.269681	0.108509	0.100379	0.069171	0.152445	-0.037008	-0.034157	0.129565	0.097702	0.111478	0.027437	0.146525	0.146525	2.134853	1.230951	0.000000	0.000000	0.000000	0.000000	0.000000	0.000000	0.000000	0.000000	0.000000	0.000000	0.000000	0.000000	0.000000	0.000000	0.000000	0.000000	0.000000	0.000000	0.000000	0.000000	0.000000	0.000000
1.780000	-0.029221	-0.269311	0.107919	0.099879	0.068415	0.153633	-0.035511	-0.031464	0.129619	0.096145	0.110501	0.027437	0.146525	0.146525	2.140479	1.231259	0.000000	0.000000	0.000000	0.000000	0.000000	0.000000	0.000000	0.000000	0.000000	0.000000	0.000000	0.000000	0.000000	0.000000	0.000000	0.000000	0.000000	0.000000	0.000000	0.000000	0.000000	0.000000
1.785000	-0.029444	-0.268964	0.107348	0.099392	0.067672	0.154822	-0.034035	-0.028761	0.129659	0.094601	0.109531	0.027437	0.146525	0.146525	2.145998	1.231572	0.000000	0.000000	0.000000	0.000000	0.000000	0.000000	0.000000	0.000000	0.000000	0.000000	0.000000	0.000000	0.000000	0.000000	0.000000	0.000000	0.000000	0.000000	0.000000	0.000000	0.000000	0.000000
1.790000	-0.029667	-0.268641	0.106796	0.098920	0.066945	0.156012	-0.032579	-0.026049	0.129684	0.093070	0.108571	0.027437	0.146525	0.146525	2.151415	1.231888	0.000000	0.000000	0.000000	0.000000	0.000000	0.000000	0.000000	0.000000	0.000000	0.000000	0.000000	0.000000	0.000000	0.000000	0.000000	0.000000	0.000000	0.000000	0.000000	0.000000	0.000000	0.000000
1.795000	-0.029887	-0.268342	0.106264	0.098463	0.066231	0.157201	-0.031146	-0.023332	0.129697	0.091552	0.107620	0.027437	0.146525	0.146525	2.156734	1.232209	0.000000	0.000000	0.000000	0.000000	0.000000	0.000000	0.000000	0.000000	0.000000	0.000000	0.000000	0.000000	0.000000	0.000000	0.000000	0.000000	0.000000	0.000000	0.000000	0.000000	0.000000	0.000000
1.800000	-0.030106	-0.268067	0.105751	0.098020	0.065533	0.158390	-0.029735	-0.020613	0.129698	0.090050	0.106678	0.027437	0.146525	0.146525	2.161959	1.232535	0.000000	0.000000	0.000000	0.000000	0.000000	0.000000	0.000000	0.000000	0.000000	0.000000	0.000000	0.000000	0.000000	0.000000	0.000000	0.000000	0.000000	0.000000	0.000000	0.000000	0.000000	0.000000
1.805000	-0.030322	-0.267817	0.105258	0.097592	0.064850	0.159577	-0.028347	-0.017894	0.129686	0.088563	0.105748	0.027437	0.146525	0.146525	2.167094	1.232864	0.000000	0.000000	0.000000	0.000000	0.000000	0.000000	0.000000	0.000000	0.000000	0.000000	0.000000	0.000000	0.000000	0.000000	0.000000	0.000000	0.000000	0.000000	0.000000	0.000000	0.000000	0.000000
